<svg xmlns="http://www.w3.org/2000/svg" xmlns:xlink="http://www.w3.org/1999/xlink" width="282.94" height="28"><path fill="white" d="M19.38 1.88L15.65 1.88L9.97 14.59L4.31 1.88L0.59 1.88L9.97 22.23ZM21.73 5.63C22.82 5.63 23.72 4.76 23.72 3.64C23.72 2.52 22.82 1.65 21.73 1.65C20.61 1.65 19.71 2.52 19.71 3.64C19.71 4.76 20.61 5.63 21.73 5.63ZM23.41 21.39L23.41 7.28L20.05 7.28L20.05 21.39ZM23.88 18.90C24.78 20.66 26.88 21.76 29.71 21.76C33.54 21.76 35.50 19.88 35.50 17.28C35.50 15.26 34.33 14 31.72 13.08C31.16 12.88 30.38 12.60 29.96 12.49C29.60 12.35 29.04 12.12 28.81 11.98C28.42 11.73 28.17 11.48 28.17 11.00C28.17 10.25 28.84 9.74 29.88 9.74C31.08 9.74 32.00 10.14 32.62 10.92L34.50 8.93C33.43 7.56 31.92 6.86 29.93 6.86C28.53 6.86 27.36 7.25 26.38 8.01C25.42 8.76 24.95 9.77 24.95 11.09C24.95 13.10 26.15 14.25 28.42 15.06C28.90 15.26 29.74 15.51 30.16 15.65C30.58 15.79 31.16 15.99 31.47 16.18C31.95 16.44 32.28 16.83 32.28 17.30C32.28 18.17 31.53 18.84 29.76 18.84C28.06 18.84 26.68 18.09 26.04 17.08L23.88 18.90ZM36.01 15.79C36.01 17.72 36.62 19.18 37.83 20.22C39.03 21.25 40.57 21.76 42.45 21.76C44.32 21.76 45.86 21.25 47.10 20.22C48.33 19.18 48.94 17.67 48.94 15.71L48.94 7.28L45.56 7.28L45.56 15.48C45.56 17.61 44.35 18.68 42.48 18.68C40.60 18.68 39.40 17.64 39.40 15.51L39.40 7.28L36.01 7.28L36.01 15.79ZM49.81 17.50C49.81 20.08 51.91 21.78 55.02 21.78C57.23 21.78 58.83 21.20 59.81 20.05C59.95 20.47 60.12 20.78 60.31 20.97C60.76 21.42 61.35 21.64 62.10 21.64C62.80 21.64 63.34 21.53 63.67 21.34L63.67 18.73L63.59 18.73C62.78 18.73 62.41 18.62 62.41 17.64L62.41 11.40C62.41 8.51 60.23 6.83 56.73 6.83C54.24 6.83 52.30 7.78 50.93 9.72L53.00 11.48C54.01 10.25 55.27 9.63 56.78 9.63C58.35 9.63 59.14 10.30 59.14 11.17C59.14 12.26 58.30 12.57 55.92 12.80C51.74 13.16 49.81 14.62 49.81 17.50ZM53.09 17.22C53.09 16.24 54.07 15.62 56.03 15.40C57.37 15.26 57.79 15.20 58.44 14.98C58.74 14.87 59.00 14.73 59.14 14.56L59.14 16.13C59.14 17.92 57.76 18.93 55.52 18.93C53.98 18.93 53.09 18.31 53.09 17.22ZM64.40 17.22C64.40 20.27 65.88 21.78 68.85 21.78C69.52 21.78 70.06 21.73 70.45 21.62L70.45 18.62C70.17 18.70 69.83 18.73 69.44 18.73C68.21 18.73 67.76 18.14 67.76 16.77L67.76 1.88L64.40 1.88L64.40 17.22ZM80.28 17.28C81.51 20.05 84.17 21.73 87.78 21.73C92.23 21.73 94.61 19.40 94.61 15.96C94.61 14.50 94.19 13.33 93.38 12.46C92.57 11.59 91.25 10.78 89.40 10.02L88.26 9.58L87.25 9.18C86.88 8.99 86.10 8.65 85.79 8.43C85.32 7.95 84.98 7.56 84.98 6.75C84.98 5.54 86.10 4.68 87.64 4.68C89.21 4.68 90.36 5.26 91.11 6.41L93.60 4.70C92.26 2.60 90.24 1.54 87.58 1.54C85.88 1.54 84.45 2.02 83.27 3.00C82.12 3.98 81.54 5.24 81.54 6.80C81.54 8.46 82.07 9.72 83.19 10.64C84.31 11.54 85.34 12.04 87.14 12.71C88.59 13.24 89.18 13.50 89.99 14.06C90.80 14.59 91.11 15.18 91.11 16.04C91.11 17.30 90.24 18.59 87.81 18.59C85.54 18.59 83.92 17.61 82.91 15.62L80.28 17.28ZM102.73 6.83C100.58 6.83 98.76 7.56 97.27 8.99C95.79 10.42 95.06 12.18 95.06 14.31C95.06 16.44 95.79 18.23 97.27 19.66C98.76 21.08 100.58 21.78 102.73 21.78C105 21.78 106.88 20.97 108.39 19.35L106.32 17.19C105.34 18.23 104.13 18.73 102.73 18.73C101.50 18.73 100.46 18.31 99.62 17.47C98.81 16.63 98.39 15.57 98.39 14.31C98.39 13.05 98.81 11.98 99.62 11.14C100.46 10.30 101.50 9.88 102.73 9.88C104.13 9.88 105.34 10.39 106.32 11.42L108.39 9.27C106.88 7.64 105 6.83 102.73 6.83ZM108.50 17.50C108.50 20.08 110.60 21.78 113.71 21.78C115.92 21.78 117.52 21.20 118.50 20.05C118.64 20.47 118.80 20.78 119.00 20.97C119.45 21.42 120.04 21.64 120.79 21.64C121.49 21.64 122.02 21.53 122.36 21.34L122.36 18.73L122.28 18.73C121.46 18.73 121.10 18.62 121.10 17.64L121.10 11.40C121.10 8.51 118.92 6.83 115.42 6.83C112.92 6.83 110.99 7.78 109.62 9.72L111.69 11.48C112.70 10.25 113.96 9.63 115.47 9.63C117.04 9.63 117.82 10.30 117.82 11.17C117.82 12.26 116.98 12.57 114.60 12.80C110.43 13.16 108.50 14.62 108.50 17.50ZM111.78 17.22C111.78 16.24 112.76 15.62 114.72 15.40C116.06 15.26 116.48 15.20 117.12 14.98C117.43 14.87 117.68 14.73 117.82 14.56L117.82 16.13C117.82 17.92 116.45 18.93 114.21 18.93C112.67 18.93 111.78 18.31 111.78 17.22ZM123.09 17.22C123.09 20.27 124.57 21.78 127.54 21.78C128.21 21.78 128.74 21.73 129.14 21.62L129.14 18.62C128.86 18.70 128.52 18.73 128.13 18.73C126.90 18.73 126.45 18.14 126.45 16.77L126.45 1.88L123.09 1.88L123.09 17.22ZM129.33 17.50C129.33 20.08 131.43 21.78 134.54 21.78C136.75 21.78 138.35 21.20 139.33 20.05C139.47 20.47 139.64 20.78 139.83 20.97C140.28 21.42 140.87 21.64 141.62 21.64C142.32 21.64 142.86 21.53 143.19 21.34L143.19 18.73L143.11 18.73C142.30 18.73 141.93 18.62 141.93 17.64L141.93 11.40C141.93 8.51 139.75 6.83 136.25 6.83C133.76 6.83 131.82 7.78 130.45 9.72L132.52 11.48C133.53 10.25 134.79 9.63 136.30 9.63C137.87 9.63 138.66 10.30 138.66 11.17C138.66 12.26 137.82 12.57 135.44 12.80C131.26 13.16 129.33 14.62 129.33 17.50ZM132.61 17.22C132.61 16.24 133.59 15.62 135.55 15.40C136.89 15.26 137.31 15.20 137.96 14.98C138.26 14.87 138.52 14.73 138.66 14.56L138.66 16.13C138.66 17.92 137.28 18.93 135.04 18.93C133.50 18.93 132.61 18.31 132.61 17.22ZM158.14 21.39L158.14 14.45L161.56 14.45L161.62 14.45L165.79 21.39L169.74 21.39L165.00 13.61C167.13 12.71 168.56 10.61 168.56 8.06C168.56 6.30 167.94 4.84 166.71 3.67C165.48 2.46 164.00 1.88 162.23 1.88L154.64 1.88L154.64 21.39ZM158.14 5.04L162.15 5.04C163.83 5.04 165.09 6.33 165.09 8.12C165.09 10.00 163.77 11.31 161.87 11.31L158.14 11.31ZM169.76 14.45C169.76 16.66 170.46 18.42 171.84 19.74C173.21 21.06 175.03 21.73 177.24 21.73C179.62 21.73 181.58 20.89 183.18 19.21L181.16 17.25C180.07 18.34 178.81 18.87 177.35 18.87C174.86 18.87 173.21 17.42 173.10 15.18L184.07 15.18C184.10 14.81 184.13 14.42 184.13 14C184.13 11.98 183.48 10.30 182.17 8.93C180.88 7.56 179.20 6.89 177.16 6.89C175.00 6.89 173.24 7.56 171.84 8.93C170.46 10.30 169.76 12.10 169.76 14.34ZM173.18 12.82C173.26 11.96 173.68 11.23 174.44 10.64C175.20 10.05 176.12 9.74 177.16 9.74C178.14 9.74 178.95 10.05 179.65 10.67C180.35 11.26 180.71 11.98 180.71 12.82ZM189.90 21.39L189.90 10.33L192.56 10.33L192.56 7.28L189.90 7.28L189.90 6.33C189.90 4.90 190.48 4.34 191.74 4.34C192.33 4.34 192.78 4.40 193.03 4.48L193.03 1.60C192.61 1.51 192.14 1.48 191.58 1.48C189.98 1.48 188.83 1.79 188.08 2.41C186.98 3.28 186.54 4.42 186.54 6.58L186.54 7.28L184.24 7.28L184.24 10.33L186.54 10.33L186.54 21.39ZM192.78 14.45C192.78 16.66 193.48 18.42 194.85 19.74C196.22 21.06 198.04 21.73 200.26 21.73C202.64 21.73 204.60 20.89 206.19 19.21L204.18 17.25C203.08 18.34 201.82 18.87 200.37 18.87C197.88 18.87 196.22 17.42 196.11 15.18L207.09 15.18C207.12 14.81 207.14 14.42 207.14 14C207.14 11.98 206.50 10.30 205.18 8.93C203.90 7.56 202.22 6.89 200.17 6.89C198.02 6.89 196.25 7.56 194.85 8.93C193.48 10.30 192.78 12.10 192.78 14.34ZM196.20 12.82C196.28 11.96 196.70 11.23 197.46 10.64C198.21 10.05 199.14 9.74 200.17 9.74C201.15 9.74 201.96 10.05 202.66 10.67C203.36 11.26 203.73 11.98 203.73 12.82ZM211.32 21.39L211.32 13.97C211.32 11.65 212.80 10.19 215.12 10.19C215.63 10.19 216.10 10.25 216.52 10.33L216.52 7.08C216.24 7.03 215.91 7 215.52 7C213.53 7 211.99 7.90 211.32 9.38L211.32 7.28L207.98 7.28L207.98 21.39ZM216.89 14.45C216.89 16.66 217.59 18.42 218.96 19.74C220.33 21.06 222.15 21.73 224.36 21.73C226.74 21.73 228.70 20.89 230.30 19.21L228.28 17.25C227.19 18.34 225.93 18.87 224.48 18.87C221.98 18.87 220.33 17.42 220.22 15.18L231.20 15.18C231.22 14.81 231.25 14.42 231.25 14C231.25 11.98 230.61 10.30 229.29 8.93C228.00 7.56 226.32 6.89 224.28 6.89C222.12 6.89 220.36 7.56 218.96 8.93C217.59 10.30 216.89 12.10 216.89 14.34ZM220.30 12.82C220.39 11.96 220.81 11.23 221.56 10.64C222.32 10.05 223.24 9.74 224.28 9.74C225.26 9.74 226.07 10.05 226.77 10.67C227.47 11.26 227.84 11.98 227.84 12.82ZM235.42 21.39L235.42 13.27C235.42 11.34 236.80 10.00 238.70 10.00C240.58 10.00 241.70 11.20 241.70 13.13L241.70 21.39L245.06 21.39L245.06 12.66C245.06 9.16 243.07 7 239.71 7C237.69 7 236.10 7.92 235.42 9.30L235.42 7.28L232.09 7.28L232.09 21.39ZM253.54 6.83C251.38 6.83 249.56 7.56 248.08 8.99C246.60 10.42 245.87 12.18 245.87 14.31C245.87 16.44 246.60 18.23 248.08 19.66C249.56 21.08 251.38 21.78 253.54 21.78C255.81 21.78 257.68 20.97 259.20 19.35L257.12 17.19C256.14 18.23 254.94 18.73 253.54 18.73C252.31 18.73 251.27 18.31 250.43 17.47C249.62 16.63 249.20 15.57 249.20 14.31C249.20 13.05 249.62 11.98 250.43 11.14C251.27 10.30 252.31 9.88 253.54 9.88C254.94 9.88 256.14 10.39 257.12 11.42L259.20 9.27C257.68 7.64 255.81 6.83 253.54 6.83ZM259.22 14.45C259.22 16.66 259.92 18.42 261.30 19.74C262.67 21.06 264.49 21.73 266.70 21.73C269.08 21.73 271.04 20.89 272.64 19.21L270.62 17.25C269.53 18.34 268.27 18.87 266.81 18.87C264.32 18.87 262.67 17.42 262.56 15.18L273.53 15.18C273.56 14.81 273.59 14.42 273.59 14C273.59 11.98 272.94 10.30 271.63 8.93C270.34 7.56 268.66 6.89 266.62 6.89C264.46 6.89 262.70 7.56 261.30 8.93C259.92 10.30 259.22 12.10 259.22 14.34ZM262.64 12.82C262.72 11.96 263.14 11.23 263.90 10.64C264.66 10.05 265.58 9.74 266.62 9.74C267.60 9.74 268.41 10.05 269.11 10.67C269.81 11.26 270.17 11.98 270.17 12.82Z"/></svg>