<?xml version="1.0" encoding="UTF-8"?>
<svg xmlns="http://www.w3.org/2000/svg" xmlns:xlink="http://www.w3.org/1999/xlink" width="48.348pt" height="111.325pt" viewBox="0 0 48.348 111.325" version="1.1">
<defs>
<clipPath id="clip1">
  <path d="M 0 0 L 48.347656 0 L 48.347656 111.324219 L 0 111.324219 Z M 0 0 "/>
</clipPath>
</defs>
<g id="surface1">
<g clip-path="url(#clip1)" clip-rule="nonzero">
<path style=" stroke:none;fill-rule:nonzero;fill:rgb(100%,100%,100%);fill-opacity:1;" d="M 0 111.324219 L 0 0 L 48.347656 0 L 48.347656 111.324219 Z M 0 111.324219 "/>
</g>
<path style="fill:none;stroke-width:0.44212;stroke-linecap:butt;stroke-linejoin:miter;stroke:rgb(0%,0%,0%);stroke-opacity:1;stroke-miterlimit:10;" d="M -5.529469 -36.851688 L -4.877125 -36.199344 M -3.685719 -36.851688 L -3.033375 -36.199344 M -1.841969 -36.851688 L -1.189625 -36.199344 M 0.00178125 -36.851688 L 0.650219 -36.199344 M 1.841625 -36.851688 L 2.493969 -36.199344 M 3.685375 -36.851688 L 4.337719 -36.199344 M 5.529125 -36.851688 L 4.876781 -36.199344 M 5.529125 -35.007938 L 4.876781 -34.355594 M 5.529125 -33.164188 L 4.876781 -32.51575 M 5.529125 -31.324344 L 4.876781 -30.672 M 5.529125 -29.480594 L 4.876781 -28.82825 M 5.529125 -27.636844 L 4.876781 -26.9845 M 5.529125 -25.793094 L 4.876781 -25.144656 M 5.529125 -23.95325 L 4.876781 -23.300906 M 5.529125 -22.1095 L 4.876781 -21.457156 M 5.529125 -20.26575 L 4.876781 -19.613406 M 5.529125 -18.425906 L 4.876781 -17.773563 M 5.529125 -16.582156 L 4.876781 -15.929813 M 5.529125 -14.738406 L 4.876781 -14.086063 M 5.529125 -12.894656 L 4.876781 -12.246219 M 5.529125 -11.054813 L 4.876781 -10.402469 M 5.529125 -9.211063 L 4.876781 -8.558719 M 5.529125 -7.367313 L 4.876781 -6.714969 M 5.529125 -5.523563 L 4.876781 -4.875125 M 5.529125 -3.683719 L 4.876781 -3.031375 M 5.529125 -1.839969 L 4.876781 -1.187625 M 5.525219 -0.000125 L 4.872875 -0.652469 M 3.681469 -0.000125 L 3.033031 -0.652469 M 1.841625 -0.000125 L 1.189281 -0.652469 M -0.002125 -0.000125 L -0.654469 -0.652469 M -1.845875 -0.000125 L -2.498219 -0.652469 M -3.689625 -0.000125 L -4.338063 -0.652469 M -5.529469 -0.00403125 L -4.877125 -0.652469 M -5.529469 -1.843875 L -4.877125 -2.496219 M -5.529469 -3.687625 L -4.877125 -4.339969 M -5.529469 -5.531375 L -4.877125 -6.183719 M -5.529469 -7.375125 L -4.877125 -8.023563 M -5.529469 -9.214969 L -4.877125 -9.867313 M -5.529469 -11.058719 L -4.877125 -11.711063 M -5.529469 -12.902469 L -4.877125 -13.550906 M -5.529469 -14.742313 L -4.877125 -15.394656 M -5.529469 -16.586063 L -4.877125 -17.238406 M -5.529469 -18.429813 L -4.877125 -19.082156 M -5.529469 -20.273563 L -4.877125 -20.922 M -5.529469 -22.113406 L -4.877125 -22.76575 M -5.529469 -23.957156 L -4.877125 -24.6095 M -5.529469 -25.800906 L -4.877125 -26.45325 M -5.529469 -27.64075 L -4.877125 -28.293094 M -5.529469 -29.4845 L -4.877125 -30.136844 M -5.529469 -31.32825 L -4.877125 -31.980594 M -5.529469 -33.172 L -4.877125 -33.820438 M -5.529469 -35.011844 L -4.877125 -35.664188 " transform="matrix(1,0,0,-1,24.174,55.828)"/>
<path style="fill:none;stroke-width:1.10533;stroke-linecap:butt;stroke-linejoin:miter;stroke:rgb(0%,0%,0%);stroke-opacity:1;stroke-miterlimit:10;" d="M 0.00178125 5.499875 L 0.00178125 36.851437 " transform="matrix(1,0,0,-1,24.174,55.828)"/>
<path style="fill-rule:nonzero;fill:rgb(16.862488%,16.862488%,16.862488%);fill-opacity:1;stroke-width:1.10533;stroke-linecap:butt;stroke-linejoin:miter;stroke:rgb(0%,0%,0%);stroke-opacity:1;stroke-miterlimit:10;" d="M 3.639076 0.00178125 L 0.553139 0.974437 L 0.553139 -0.974781 Z M 3.639076 0.00178125 " transform="matrix(0,1,1,0,24.174,50.05233)"/>
</g>
</svg>
