<svg width="438.549" height="438.549" xmlns="http://www.w3.org/2000/svg">

 <g>
  <title>background</title>
  <rect fill="none" id="canvas_background" height="402" width="582" y="-1" x="-1"/>
 </g>
 <g>
  <title>Layer 1</title>
  <g id="svg_1">
   <path fill="#ffffff" id="svg_2" d="m409.131989,114.572998c-19.608002,-33.596001 -46.204987,-60.194 -79.798004,-79.800003c-33.597992,-19.606995 -70.276978,-29.407995 -110.062988,-29.407995c-39.780991,0 -76.472,9.804 -110.063004,29.408003c-33.596001,19.604996 -60.192001,46.203995 -79.800003,79.800003c-19.604989,33.594994 -29.40799,70.280998 -29.40799,110.056999c0,47.779999 13.94,90.744995 41.827,128.906006c27.883999,38.164001 63.906002,64.571991 108.063,79.22699c5.139999,0.95401 8.945007,0.28302 11.419006,-1.996002c2.474991,-2.281982 3.710999,-5.139984 3.710999,-8.561981c0,-0.571014 -0.048996,-5.708008 -0.143997,-15.417023c-0.098007,-9.708984 -0.143997,-18.178986 -0.143997,-25.405975l-6.567001,1.135986c-4.187012,0.766998 -9.469009,1.09201 -15.846008,1c-6.373993,-0.088989 -12.990997,-0.756989 -19.841995,-1.998993c-6.854004,-1.231018 -13.229004,-4.085999 -19.129997,-8.55899c-5.898003,-4.473022 -10.084999,-10.328003 -12.560005,-17.556l-2.854996,-6.570007c-1.903,-4.373993 -4.899002,-9.233002 -8.992004,-14.559021c-4.092995,-5.330994 -8.231995,-8.944977 -12.418999,-10.847992l-1.999001,-1.431c-1.331997,-0.950989 -2.567997,-2.097992 -3.710999,-3.428986c-1.141998,-1.330994 -1.996998,-2.662994 -2.568001,-3.997009c-0.571999,-1.334991 -0.098,-2.429993 1.427002,-3.289001c1.524998,-0.859009 4.280998,-1.276001 8.279999,-1.276001l5.708,0.852997c3.806999,0.763 8.515999,3.041992 14.133003,6.851013c5.613998,3.806 10.228996,8.753998 13.846001,14.84198c4.379997,7.806 9.656998,13.754028 15.845993,17.847015c6.184006,4.092987 12.419006,6.135986 18.699005,6.135986c6.279999,0 11.703995,-0.475983 16.274002,-1.422974c4.565002,-0.952026 8.847992,-2.383026 12.847,-4.285004c1.712997,-12.758026 6.376999,-22.559021 13.987991,-29.410004c-10.847992,-1.140015 -20.600998,-2.856995 -29.263992,-5.140015c-8.658005,-2.28598 -17.604996,-5.996002 -26.834999,-11.139984c-9.235001,-5.136993 -16.896004,-11.516022 -22.985001,-19.126007c-6.090004,-7.614014 -11.088005,-17.610016 -14.987007,-29.979004c-3.900993,-12.373993 -5.851997,-26.647995 -5.851997,-42.826004c0,-23.034988 7.519997,-42.636993 22.556999,-58.817001c-7.043999,-17.317993 -6.378998,-36.731995 1.997002,-58.239998c5.519997,-1.714996 13.706001,-0.427994 24.553993,3.853004c10.850006,4.282997 18.794006,7.951996 23.840012,10.993996c5.04599,3.041 9.088989,5.618004 12.134995,7.708c17.705002,-4.946999 35.975998,-7.420998 54.818008,-7.420998s37.117004,2.473999 54.822998,7.420998l10.848999,-6.848999c7.419006,-4.57 16.179993,-8.757996 26.261993,-12.564995c10.088013,-3.805 17.802002,-4.853004 23.134003,-3.138c8.562012,21.509003 9.325012,40.922005 2.278992,58.239998c15.036011,16.180008 22.559021,35.787003 22.559021,58.817001c0,16.177994 -1.958008,30.497009 -5.852997,42.966003c-3.900024,12.471008 -8.94101,22.457001 -15.125,29.979004c-6.19101,7.520996 -13.901001,13.850006 -23.131012,18.985992c-9.231995,5.140015 -18.182007,8.850006 -26.839996,11.135986c-8.662018,2.286011 -18.415009,4.004028 -29.263,5.146027c9.893982,8.561981 14.84198,22.076996 14.84198,40.539001l0,60.237c0,3.421997 1.190002,6.278992 3.572021,8.561981c2.378998,2.279022 6.135986,2.950012 11.276001,1.994995c44.162994,-14.652985 80.184998,-41.061981 108.067993,-79.225983c27.880005,-38.161011 41.825012,-81.126007 41.825012,-128.906006c-0.01001,-39.771011 -9.818024,-76.45401 -29.414032,-110.049011z"/>
  </g>
  <g id="svg_3"/>
  <g id="svg_4"/>
  <g id="svg_5"/>
  <g id="svg_6"/>
  <g id="svg_7"/>
  <g id="svg_8"/>
  <g id="svg_9"/>
  <g id="svg_10"/>
  <g id="svg_11"/>
  <g id="svg_12"/>
  <g id="svg_13"/>
  <g id="svg_14"/>
  <g id="svg_15"/>
  <g id="svg_16"/>
  <g id="svg_17"/>
 </g>
</svg>